<svg version="1.1" class="logo" xmlns="http://www.w3.org/2000/svg" x="0px" y="0px"
             width="230px" height="76px" viewBox="0 0 230 76" enable-background="new 0 0 230 76" xml:space="preserve">
          <g>
            <path fill="none" class="v" stroke="#69C1A8" stroke-width="2" stroke-miterlimit="10" d="M46.174,13.571L26.357,61.578L6.721,13.571h18.01
              l1.868,6.447l2.108-6.447H46.174z M42.861,15.801H30.332l-3.855,11.806l-3.432-11.806H10.034l16.323,39.934L42.861,15.801z"/>
            <path fill="none" class="e" stroke="#69C1A8" stroke-width="2" stroke-miterlimit="10" d="M85.084,55.796H74.061
              c-4.859,0-8.583-1.184-11.174-3.554c-2.59-2.368-3.885-5.783-3.885-10.238V27.246c0-4.337,1.235-7.7,3.705-10.089
              c2.468-2.389,5.952-3.585,10.45-3.585h11.927v15.36h-0.421c-0.202,0-0.302,0.202-0.302,0.603v10.601
              c0,0.281,0.122,0.422,0.362,0.422h0.361V55.796z M82.855,53.567V42.785h-7.53c-1.365,0-2.238-0.129-2.621-0.391
              c-0.381-0.261-0.571-0.774-0.571-1.537c0-0.723,0.2-1.223,0.602-1.506c0.401-0.279,1.105-0.421,2.109-0.421h7.288v-8.433h-6.144
              c-1.125,0-1.938-0.13-2.439-0.392c-0.502-0.259-0.752-0.772-0.752-1.536c0-1.243,0.963-1.867,2.891-1.867h7.168V15.801h-9.698
              c-3.774,0-6.706,1.004-8.794,3.011c-2.088,2.008-3.132,4.819-3.132,8.433v14.758c0,3.733,1.104,6.595,3.313,8.583
              c2.208,1.986,5.38,2.98,9.517,2.98H82.855z"/>
            <path fill="none" class="a" stroke="#69C1A8" stroke-width="2" stroke-miterlimit="10" d="M134.596,56.7h-15.661v-9.817
              c0-0.241-0.081-0.362-0.241-0.362h-0.301V56.7h-15.721V29.293c0-5.38,1.455-9.536,4.366-12.468
              c2.912-2.931,7.037-4.397,12.377-4.397c5.142,0,8.955,1.346,11.446,4.036c2.489,2.69,3.734,6.826,3.734,12.408V56.7z
               M132.366,54.471V28.872c0-4.819-1.056-8.393-3.163-10.722c-2.107-2.328-5.371-3.493-9.788-3.493
              c-4.617,0-8.191,1.275-10.721,3.825c-2.529,2.551-3.794,6.154-3.794,10.812v25.178h11.264V44.292h3.191v-9.879h-3.191v-4.758
              c0-2.61,0.882-3.916,2.65-3.916c0.842,0,1.445,0.292,1.807,0.874c0.361,0.583,0.541,1.596,0.541,3.042v24.816H132.366z
               M119.114,31.824v-2.169c0-0.843-0.021-1.365-0.06-1.566c-0.04-0.201-0.16-0.301-0.361-0.301c-0.202,0-0.332,0.111-0.392,0.332
              c-0.061,0.221-0.091,0.732-0.091,1.536v2.71h0.543C118.994,32.365,119.114,32.184,119.114,31.824z"/>
            <path fill="none" class="s" stroke="#69C1A8" stroke-width="2" stroke-miterlimit="10" d="M175.795,29.233
              c-2.451-0.843-3.736-1.266-3.856-1.266c-0.683,0-1.022,0.423-1.022,1.266c0,0.522,0.199,1.145,0.602,1.867l0.844,1.566
              c1.767,3.093,2.65,6.143,2.65,9.156c0,3.895-1.478,7.348-4.427,10.36c-2.953,3.012-6.617,4.518-10.994,4.518
              c-2.69,0-5.321-0.604-7.891-1.806V38.449c2.892,1.847,4.76,2.771,5.603,2.771c0.442,0,0.663-0.221,0.663-0.664
              c0-0.24-0.423-1.084-1.267-2.531c-1.886-3.251-2.83-6.564-2.83-9.937c0-4.176,1.496-7.831,4.487-10.964
              c2.99-3.131,6.536-4.697,10.631-4.697c1.888,0,4.156,0.443,6.808,1.326V29.233z M173.565,26.161V15.379
              c-1.364-0.482-2.892-0.723-4.578-0.723c-3.494,0-6.517,1.345-9.065,4.036c-2.551,2.691-3.824,5.823-3.824,9.397
              c0,2.932,0.843,5.883,2.529,8.854c1.045,1.808,1.565,3.011,1.565,3.614c0,0.844-0.3,1.535-0.903,2.078
              c-0.602,0.543-1.364,0.813-2.288,0.813c-1.005,0-2.027-0.321-3.071-0.964v10.961c1.765,0.805,3.613,1.207,5.541,1.207
              c3.653,0,6.785-1.274,9.396-3.825c2.609-2.551,3.915-5.571,3.915-9.065c0-2.569-0.783-5.241-2.35-8.011l-0.842-1.505
              c-0.644-1.085-0.965-2.108-0.965-3.073c0-1.044,0.331-1.876,0.994-2.5c0.663-0.622,1.395-0.934,2.198-0.934
              C172.1,25.739,172.682,25.881,173.565,26.161z"/>
            <path fill="none" class="y" stroke="#69C1A8" stroke-width="2" stroke-miterlimit="10" d="M226.209,13.571L213.68,33.269v22.527h-15.661
              V33.269l-12.647-19.697h16.683l3.736,5.964l4.035-5.964H226.209z M222.174,15.801h-11.146l-5.299,7.831l-4.88-7.831h-11.383
              l10.781,16.805v20.961h11.204V32.606L222.174,15.801z"/>
          </g>
          </svg>
